<mxfile host="app.diagrams.net" agent="Mozilla/5.0 (Windows NT 10.0; Win64; x64) AppleWebKit/537.36 (KHTML, like Gecko) Chrome/132.0.0.0 Safari/537.36" version="26.0.10">
  <diagram name="Page-1" id="ymbBxBnQPJj-keSfcTqJ">
    <mxGraphModel dx="1004" dy="623" grid="1" gridSize="10" guides="1" tooltips="1" connect="1" arrows="1" fold="1" page="1" pageScale="1" pageWidth="827" pageHeight="1169" math="0" shadow="0">
      <root>
        <mxCell id="0" />
        <mxCell id="1" parent="0" />
        <mxCell id="FLjA4nBivajkYoCV5ZKD-1" value="&lt;font style=&quot;font-size: 24px;&quot;&gt;Settings&lt;/font&gt;" style="rounded=0;whiteSpace=wrap;html=1;" parent="1" vertex="1">
          <mxGeometry x="660" y="40" width="144" height="30" as="geometry" />
        </mxCell>
        <mxCell id="FLjA4nBivajkYoCV5ZKD-3" value="" style="whiteSpace=wrap;html=1;aspect=fixed;" parent="1" vertex="1">
          <mxGeometry x="254" y="120" width="319" height="319" as="geometry" />
        </mxCell>
        <mxCell id="FLjA4nBivajkYoCV5ZKD-4" value="" style="ellipse;whiteSpace=wrap;html=1;aspect=fixed;" parent="1" vertex="1">
          <mxGeometry x="259" y="535" width="40" height="40" as="geometry" />
        </mxCell>
        <mxCell id="FLjA4nBivajkYoCV5ZKD-5" value="" style="ellipse;whiteSpace=wrap;html=1;aspect=fixed;" parent="1" vertex="1">
          <mxGeometry x="320" y="535" width="40" height="40" as="geometry" />
        </mxCell>
        <mxCell id="FLjA4nBivajkYoCV5ZKD-6" value="" style="ellipse;whiteSpace=wrap;html=1;aspect=fixed;" parent="1" vertex="1">
          <mxGeometry x="470" y="535" width="40" height="40" as="geometry" />
        </mxCell>
        <mxCell id="FLjA4nBivajkYoCV5ZKD-7" value="" style="ellipse;whiteSpace=wrap;html=1;aspect=fixed;" parent="1" vertex="1">
          <mxGeometry x="529" y="535" width="40" height="40" as="geometry" />
        </mxCell>
        <mxCell id="FLjA4nBivajkYoCV5ZKD-9" value="" style="ellipse;whiteSpace=wrap;html=1;aspect=fixed;" parent="1" vertex="1">
          <mxGeometry x="384" y="525" width="60" height="60" as="geometry" />
        </mxCell>
        <mxCell id="FLjA4nBivajkYoCV5ZKD-10" value="Chatfunctie" style="whiteSpace=wrap;html=1;shape=mxgraph.basic.oval_callout" parent="1" vertex="1">
          <mxGeometry x="590" y="180" width="130" height="80" as="geometry" />
        </mxCell>
        <mxCell id="FLjA4nBivajkYoCV5ZKD-11" value="" style="endArrow=none;html=1;rounded=0;" parent="1" edge="1">
          <mxGeometry width="50" height="50" relative="1" as="geometry">
            <mxPoint x="80" y="220" as="sourcePoint" />
            <mxPoint x="200" y="220" as="targetPoint" />
          </mxGeometry>
        </mxCell>
        <mxCell id="FLjA4nBivajkYoCV5ZKD-12" value="" style="endArrow=none;html=1;rounded=0;" parent="1" edge="1">
          <mxGeometry width="50" height="50" relative="1" as="geometry">
            <mxPoint x="80" y="300" as="sourcePoint" />
            <mxPoint x="200" y="300" as="targetPoint" />
          </mxGeometry>
        </mxCell>
        <mxCell id="FLjA4nBivajkYoCV5ZKD-13" value="" style="endArrow=none;html=1;rounded=0;" parent="1" edge="1">
          <mxGeometry width="50" height="50" relative="1" as="geometry">
            <mxPoint x="80" y="260" as="sourcePoint" />
            <mxPoint x="200" y="260" as="targetPoint" />
          </mxGeometry>
        </mxCell>
        <mxCell id="FLjA4nBivajkYoCV5ZKD-14" value="" style="endArrow=none;html=1;rounded=0;" parent="1" edge="1">
          <mxGeometry width="50" height="50" relative="1" as="geometry">
            <mxPoint x="80" y="340" as="sourcePoint" />
            <mxPoint x="200" y="340" as="targetPoint" />
          </mxGeometry>
        </mxCell>
        <mxCell id="FLjA4nBivajkYoCV5ZKD-15" value="LEVEL" style="rounded=1;whiteSpace=wrap;html=1;" parent="1" vertex="1">
          <mxGeometry x="259" y="470" width="310" height="20" as="geometry" />
        </mxCell>
        <mxCell id="FLjA4nBivajkYoCV5ZKD-16" value="" style="endArrow=none;html=1;rounded=0;entryX=0;entryY=0;entryDx=0;entryDy=0;exitX=1;exitY=1;exitDx=0;exitDy=0;" parent="1" source="FLjA4nBivajkYoCV5ZKD-3" target="FLjA4nBivajkYoCV5ZKD-3" edge="1">
          <mxGeometry width="50" height="50" relative="1" as="geometry">
            <mxPoint x="90" y="230" as="sourcePoint" />
            <mxPoint x="210" y="230" as="targetPoint" />
          </mxGeometry>
        </mxCell>
        <mxCell id="FLjA4nBivajkYoCV5ZKD-17" value="" style="endArrow=none;html=1;rounded=0;entryX=1;entryY=0;entryDx=0;entryDy=0;exitX=0;exitY=1;exitDx=0;exitDy=0;" parent="1" source="FLjA4nBivajkYoCV5ZKD-3" target="FLjA4nBivajkYoCV5ZKD-3" edge="1">
          <mxGeometry width="50" height="50" relative="1" as="geometry">
            <mxPoint x="689" y="429" as="sourcePoint" />
            <mxPoint x="370" y="110" as="targetPoint" />
          </mxGeometry>
        </mxCell>
      </root>
    </mxGraphModel>
  </diagram>
</mxfile>
